<svg width="236" height="94" viewBox="0 0 236 94" fill="none" xmlns="http://www.w3.org/2000/svg">
<path d="M77.9375 56.6875V72.9375H12.4375L11.1875 60.0625L47.75 1.25H64.375L46.3125 30.8125L31.3125 56.6875H77.9375ZM68.75 1.25V92.25H47.6875V1.25H68.75Z" fill="#0063EA"/>
<path d="M151.375 38.4375V55.0625C151.375 61.6042 150.604 67.2917 149.062 72.125C147.562 76.9583 145.396 80.9583 142.562 84.125C139.771 87.2917 136.438 89.6458 132.562 91.1875C128.688 92.7292 124.417 93.5 119.75 93.5C116 93.5 112.5 93.0208 109.25 92.0625C106 91.0625 103.062 89.5625 100.438 87.5625C97.8542 85.5208 95.625 82.9792 93.75 79.9375C91.875 76.8958 90.4375 73.3125 89.4375 69.1875C88.4375 65.0208 87.9375 60.3125 87.9375 55.0625V38.4375C87.9375 31.8542 88.6875 26.1667 90.1875 21.375C91.7292 16.5417 93.9167 12.5417 96.75 9.375C99.5833 6.20833 102.938 3.85417 106.812 2.3125C110.688 0.770833 114.958 0 119.625 0C123.375 0 126.854 0.5 130.062 1.5C133.312 2.45833 136.25 3.95833 138.875 6C141.5 8 143.729 10.5208 145.562 13.5625C147.438 16.6042 148.875 20.2083 149.875 24.375C150.875 28.5 151.375 33.1875 151.375 38.4375ZM130.312 57.625V35.75C130.312 32.8333 130.146 30.2917 129.812 28.125C129.521 25.9583 129.062 24.125 128.438 22.625C127.854 21.125 127.125 19.9167 126.25 19C125.375 18.0417 124.375 17.3542 123.25 16.9375C122.167 16.4792 120.958 16.25 119.625 16.25C117.958 16.25 116.458 16.6042 115.125 17.3125C113.833 17.9792 112.729 19.0625 111.812 20.5625C110.896 22.0625 110.188 24.0625 109.688 26.5625C109.229 29.0625 109 32.125 109 35.75V57.625C109 60.5833 109.146 63.1667 109.438 65.375C109.771 67.5417 110.229 69.3958 110.812 70.9375C111.438 72.4375 112.188 73.6667 113.062 74.625C113.938 75.5417 114.938 76.2083 116.062 76.625C117.188 77.0417 118.417 77.25 119.75 77.25C121.375 77.25 122.833 76.9167 124.125 76.25C125.417 75.5833 126.521 74.5 127.438 73C128.396 71.4583 129.104 69.4375 129.562 66.9375C130.062 64.3958 130.312 61.2917 130.312 57.625Z" fill="#0063EA"/>
<path d="M224.812 38.4375V55.0625C224.812 61.6042 224.042 67.2917 222.5 72.125C221 76.9583 218.833 80.9583 216 84.125C213.208 87.2917 209.875 89.6458 206 91.1875C202.125 92.7292 197.854 93.5 193.188 93.5C189.438 93.5 185.938 93.0208 182.688 92.0625C179.438 91.0625 176.5 89.5625 173.875 87.5625C171.292 85.5208 169.062 82.9792 167.188 79.9375C165.312 76.8958 163.875 73.3125 162.875 69.1875C161.875 65.0208 161.375 60.3125 161.375 55.0625V38.4375C161.375 31.8542 162.125 26.1667 163.625 21.375C165.167 16.5417 167.354 12.5417 170.188 9.375C173.021 6.20833 176.375 3.85417 180.25 2.3125C184.125 0.770833 188.396 0 193.062 0C196.812 0 200.292 0.5 203.5 1.5C206.75 2.45833 209.688 3.95833 212.312 6C214.938 8 217.167 10.5208 219 13.5625C220.875 16.6042 222.312 20.2083 223.312 24.375C224.312 28.5 224.812 33.1875 224.812 38.4375ZM203.75 57.625V35.75C203.75 32.8333 203.583 30.2917 203.25 28.125C202.958 25.9583 202.5 24.125 201.875 22.625C201.292 21.125 200.562 19.9167 199.688 19C198.812 18.0417 197.812 17.3542 196.688 16.9375C195.604 16.4792 194.396 16.25 193.062 16.25C191.396 16.25 189.896 16.6042 188.562 17.3125C187.271 17.9792 186.167 19.0625 185.25 20.5625C184.333 22.0625 183.625 24.0625 183.125 26.5625C182.667 29.0625 182.438 32.125 182.438 35.75V57.625C182.438 60.5833 182.583 63.1667 182.875 65.375C183.208 67.5417 183.667 69.3958 184.25 70.9375C184.875 72.4375 185.625 73.6667 186.5 74.625C187.375 75.5417 188.375 76.2083 189.5 76.625C190.625 77.0417 191.854 77.25 193.188 77.25C194.812 77.25 196.271 76.9167 197.562 76.25C198.854 75.5833 199.958 74.5 200.875 73C201.833 71.4583 202.542 69.4375 203 66.9375C203.5 64.3958 203.75 61.2917 203.75 57.625Z" fill="#0063EA"/>
</svg>
