<svg width="300" height="217" viewBox="0 0 300 217" fill="none" xmlns="http://www.w3.org/2000/svg">
<g clip-path="url(#clip0_500_877)">
<path d="M50.2057 33.9172C47.1398 33.8404 44.1207 34.681 41.534 36.3316C38.9473 37.9821 36.9106 40.3674 35.6838 43.1832C34.4571 45.9991 34.096 49.1176 34.6469 52.14C35.1977 55.1623 36.6354 57.9514 38.7764 60.1512C40.9173 62.351 43.6644 63.8618 46.6664 64.49C49.6684 65.1182 52.7892 64.8353 55.6301 63.678C58.471 62.5207 60.9032 60.5412 62.6157 57.9924C64.3282 55.4437 65.2434 52.4415 65.2443 49.3691C65.2456 45.3371 63.6736 41.464 60.8639 38.5771C58.0542 35.6902 54.2292 34.018 50.2057 33.9172ZM137.738 38.321C135.611 36.0862 132.865 34.5407 129.854 33.8842C126.842 33.2276 123.703 33.4899 120.842 34.6373C117.981 35.7846 115.528 37.7645 113.8 40.3214C112.073 42.8783 111.15 45.8953 111.15 48.9829C111.15 52.0705 112.073 55.087 113.8 57.644C115.528 60.2009 117.981 62.1807 120.842 63.3281C123.703 64.4755 126.842 64.7377 129.854 64.0812C132.865 63.4246 135.611 61.8796 137.738 59.6448L127.095 48.9829L137.738 38.321Z" fill="#445C7D"/>
<path d="M106.735 32.8353C109.132 30.014 112.088 27.7215 115.414 26.102C118.741 24.4825 122.367 23.5711 126.062 23.4259C129.758 23.2807 133.444 23.9048 136.887 25.2584C140.33 26.6119 143.456 28.6655 146.066 31.29L162.57 14.6795C155.611 7.69354 146.751 2.91698 137.097 0.946413C127.443 -1.02416 117.424 -0.101189 108.291 3.59985C99.1577 7.30089 91.3156 13.616 85.7444 21.7561C80.1732 29.8963 77.1199 39.5004 76.966 49.369C77.0006 56.1269 74.5644 62.6635 70.1172 67.745C65.6699 72.8265 59.5197 76.1013 52.8273 76.9507C46.9163 77.5544 40.9727 76.17 35.9336 73.016C30.8946 69.8621 27.0466 65.1182 24.9962 59.5315C22.9458 53.9447 22.8095 47.8331 24.6091 42.1603C26.4086 36.4875 30.0417 31.576 34.9352 28.1999V28.1999L36.4775 27.1955H37.2488L38.4827 26.5773L39.6395 26.0364L40.6421 25.6502L42.1846 25.1094H42.7245L44.7295 24.6458C49.5014 23.7152 54.4369 24.1163 58.9969 25.8049C60.8458 26.5067 62.8586 26.6537 64.7897 26.2284C66.7207 25.803 68.4864 24.8239 69.871 23.4099L81.0534 11.6663C72.1792 4.57761 61.1694 0.710528 49.8195 0.695546V0.695546C46.6601 0.686242 43.5078 0.996821 40.4108 1.62262V1.62262C39.183 1.84944 37.972 2.15915 36.7861 2.5497H35.5521L32.7759 3.47678L30.8478 4.24918L28.9198 5.0994L26.2977 6.33534L25.1407 7.03089L21.979 8.96238C19.4166 10.7281 17.0162 12.7186 14.8066 14.911V14.911C8.99723 20.7411 4.70881 27.9135 2.31915 35.7957C-0.0705056 43.6779 -0.487826 52.0281 1.10379 60.1101C2.6954 68.192 6.24711 75.7578 11.446 82.1402C16.6448 88.5225 23.3311 93.5255 30.9154 96.7084C38.4997 99.8913 46.7491 101.156 54.9366 100.392C63.124 99.6272 70.9981 96.8567 77.8645 92.3243C84.731 87.792 90.379 81.6374 94.3109 74.4024C98.2427 67.1674 100.338 59.0743 100.411 50.8369C100.334 44.2771 102.574 37.9009 106.735 32.8353V32.8353ZM127.095 77.028C121.743 77.0269 116.511 75.4408 112.056 72.4695L95.7835 89.544C105.433 97.2385 117.568 101.112 129.882 100.428C142.195 99.7447 153.829 94.5513 162.57 85.8357L146.066 69.2247C141.023 74.2393 134.2 77.0455 127.095 77.028Z" fill="#445C7D"/>
<path d="M17.4289 113.958C4.62682 113.958 3.77851 121.684 3.47003 132.887V138.99C3.47003 150.347 4.31834 158.692 17.4289 158.692C30.5394 158.692 31.3108 150.347 31.3108 138.99V132.887C31.0023 121.993 30.1538 113.958 17.4289 113.958ZM23.136 142.313C23.136 146.407 23.1358 152.279 17.4289 152.279C11.7219 152.279 11.6448 146.484 11.6448 143.008V131.11C11.6448 127.865 11.105 120.371 17.4289 120.371C23.7528 120.371 23.136 128.096 23.136 131.341V142.313ZM50.3596 130.414C47.8918 128.869 45.8095 127.633 45.8095 124.388C45.8095 121.143 47.506 120.371 50.2052 120.371C54.6011 120.371 54.9097 124.156 54.8325 128.097H62.5446C62.5446 123.847 62.5447 114.113 50.1283 114.113C41.7221 114.113 37.6347 118.053 37.6347 125.393C37.673 127.715 38.3976 129.973 39.7169 131.882C43.45 135.723 47.6775 139.049 52.2877 141.772C53.2558 142.358 54.0558 143.186 54.6099 144.174C55.164 145.163 55.4533 146.278 55.4496 147.412C55.5516 148.088 55.4949 148.778 55.2842 149.429C55.0734 150.079 54.7144 150.672 54.2354 151.159C53.7565 151.646 53.1709 152.015 52.5249 152.236C51.8789 152.458 51.1903 152.525 50.5138 152.434C46.5806 152.434 45.3467 149.42 45.501 145.248V142.699H37.7889V145.866C37.5458 147.628 37.7135 149.422 38.2787 151.108C38.8438 152.793 39.791 154.325 41.0462 155.583C42.3014 156.84 43.8305 157.789 45.5132 158.355C47.196 158.922 48.9867 159.089 50.7451 158.846C52.446 159.065 54.1743 158.906 55.8064 158.378C57.4386 157.851 58.9346 156.969 60.1871 155.796C61.4396 154.622 62.4178 153.186 63.0521 151.589C63.6863 149.993 63.9607 148.277 63.8558 146.562C63.9623 144.898 63.6994 143.231 63.0859 141.682C62.4725 140.132 61.5239 138.738 60.3083 137.599C57.1809 134.952 53.8549 132.55 50.3596 130.414V130.414ZM83.4445 152.279C77.969 152.279 77.6605 146.484 77.6605 143.008V131.11C77.6605 127.865 77.1978 120.371 83.4445 120.371C87.3777 120.371 87.0691 125.47 87.3776 128.097H95.0896C95.1653 127.016 95.1653 125.932 95.0896 124.852C95.1516 123.331 94.8877 121.814 94.3158 120.404C93.7439 118.994 92.8772 117.723 91.774 116.676C90.6707 115.629 89.3565 114.831 87.9198 114.336C86.4831 113.84 84.9571 113.659 83.4445 113.804C70.7196 113.804 69.7939 121.529 69.4855 132.732V138.836C69.4855 150.193 70.334 158.537 83.4445 158.537C92.3134 158.537 94.9354 152.588 95.321 144.784C95.321 143.935 95.321 143.085 95.321 142.313H87.6089C87.3004 145.171 87.7633 152.279 83.4445 152.279ZM108.663 114.962L98.483 157.687H107.044L109.126 146.871H118.457L120.54 157.687H129.1L119.383 114.962H108.663ZM110.36 140.613L112.75 128.483C113.121 126.516 113.379 124.53 113.522 122.534C113.522 121.53 113.522 120.602 113.522 119.675C113.522 120.602 113.522 121.53 113.522 122.534C113.691 124.532 113.974 126.518 114.37 128.483L116.529 140.613H110.36ZM160.102 143.394C160.102 139.299 158.714 136.286 154.01 135.668C159.331 134.895 160.488 130.028 160.488 125.393C160.488 117.667 155.321 115.117 148.38 115.117H133.342V157.841H141.054V139.686H142.519C144.77 139.555 147.028 139.737 149.229 140.226C152.005 140.999 151.928 144.63 152.005 147.257C151.823 150.884 152.109 154.519 152.853 158.073H161.568V157.301C159.871 155.601 160.102 145.171 160.102 143.394ZM147.686 133.041H141.439V121.22H147.378C150.385 121.22 152.39 122.071 152.39 126.861C152.39 131.651 150.154 132.81 147.686 133.041ZM254.73 173.139H238.149V215.863H252.879C254.9 215.998 256.921 215.599 258.74 214.705C265.295 210.919 265.295 201.184 265.295 192.763C265.807 187.726 265.01 182.643 262.982 178.006C262.118 176.538 260.89 175.318 259.417 174.466C257.945 173.613 256.277 173.156 254.576 173.139H254.73ZM249.563 209.605H246.092V179.397H251.337C256.118 179.397 257.121 183.415 257.121 193.458C256.966 205.82 256.504 209.605 249.409 209.605H249.563ZM222.185 215.863H229.897V173.139H222.185V215.863ZM286.195 172.135C273.47 172.135 272.622 179.861 272.236 191.063V197.167C272.236 208.524 273.085 216.868 286.195 216.868C299.306 216.868 300.154 208.524 300.154 197.167V191.063C299.614 180.17 298.766 172.135 286.041 172.135H286.195ZM291.902 200.489C291.902 204.584 291.902 210.455 286.195 210.455C280.488 210.455 280.411 204.661 280.411 201.184V189.286C280.411 186.041 279.948 178.547 286.195 178.547C292.442 178.547 291.902 186.273 291.902 189.518V200.489ZM17.1975 210.455C11.7219 210.455 11.4907 204.661 11.4907 201.184V189.286C11.4907 186.041 10.9507 178.547 17.1975 178.547C21.1307 178.547 20.8224 183.646 21.208 186.273H28.92C28.9957 185.193 28.9957 184.108 28.92 183.028C28.982 181.507 28.7181 179.991 28.1462 178.58C27.5743 177.17 26.7074 175.899 25.6041 174.852C24.5009 173.806 23.1867 173.008 21.75 172.512C20.3133 172.017 18.7873 171.835 17.2747 171.98C4.54979 171.98 3.70155 179.706 3.39307 190.909V197.012C3.39307 208.369 4.2413 216.713 17.2747 216.713C26.1436 216.713 28.7658 210.764 29.1514 202.961C29.1514 202.111 29.1514 201.261 29.1514 200.489H21.4393C20.8995 203.347 21.4393 210.455 17.0434 210.455H17.1975ZM42.4932 173.139L32.0048 215.863H40.4882L42.5704 205.047H51.9019L54.0613 215.863H62.8532L53.2131 173.139H42.4932ZM44.1898 198.789L46.5808 186.66C46.9664 184.651 47.1204 182.719 47.3518 180.71C47.5832 178.702 47.3518 178.779 47.3518 177.852C47.3518 178.779 47.3518 179.706 47.3518 180.71C47.3518 181.715 47.7375 184.651 48.1231 186.66L50.2824 198.789H44.1898ZM93.7015 201.493C93.7015 197.398 92.2363 194.385 87.5319 193.767C92.9304 192.995 94.087 188.127 94.087 183.492C94.087 175.766 88.843 173.216 81.9792 173.216H66.9406V215.941H74.6527V197.553H76.0408C78.3171 197.419 80.6009 197.601 82.8275 198.094C85.5267 198.866 85.5267 202.497 85.5267 205.124C85.3859 208.75 85.6705 212.381 86.3749 215.941H95.1668V215.168C93.7015 213.778 93.7015 203.347 93.7015 201.493ZM81.1308 191.14H74.884V179.32H80.7453C83.8301 179.32 85.7581 180.169 85.7581 184.96C85.7581 189.75 83.8301 190.986 81.208 191.218L81.1308 191.14ZM140.205 173.062L130.025 215.786H138.586L140.668 204.97H150L152.082 215.786H160.642L150.925 173.062H140.205ZM141.902 198.712L144.293 186.582C144.678 184.573 144.833 182.642 145.064 180.633C145.295 178.624 145.064 178.702 145.064 177.774C145.064 178.702 145.064 179.629 145.064 180.633C145.233 182.631 145.516 184.617 145.912 186.582L148.072 198.712H141.902ZM120.462 192.918C122.205 192.224 123.663 190.962 124.6 189.336C125.538 187.71 125.901 185.814 125.63 183.955C125.865 181.203 125.098 178.459 123.47 176.229C122.321 175.031 120.902 174.126 119.333 173.588C117.763 173.051 116.088 172.897 114.447 173.139H101.414V215.863H115.45C117.845 216.122 120.251 215.472 122.192 214.042C124.134 212.612 125.47 210.505 125.938 208.137C126.376 206.421 126.583 204.655 126.555 202.884C126.786 197.398 125.013 193.767 120.54 192.995L120.462 192.918ZM109.588 179.32H113.29C116.915 179.32 117.609 181.019 117.609 184.187C117.792 185.791 117.468 187.412 116.684 188.823C115.45 190.445 112.982 190.29 111.054 190.29H109.588V179.32ZM116.067 209.064C114.518 209.531 112.894 209.689 111.285 209.528H109.588V196.548H112.596C117.609 196.548 118.457 198.48 118.457 203.116C118.534 205.356 118.303 208.138 116.144 209.219L116.067 209.064ZM201.671 173.139H193.959V215.863H216.709V209.605H201.671V173.139ZM173.29 173.139H165.578V215.863H188.252V209.605H173.522L173.29 173.139Z" fill="#445C7D"/>
</g>
<defs>
<clipPath id="clip0_500_877">
<rect width="300" height="216.868" fill="white"/>
</clipPath>
</defs>
</svg>
