<svg width="100" height="72" viewBox="0 0 100 72" fill="none" xmlns="http://www.w3.org/2000/svg">
<g clip-path="url(#clip0_315_2388)">
<path d="M16.6682 11.2606C15.6504 11.2351 14.648 11.5142 13.7893 12.0622C12.9305 12.6102 12.2543 13.4021 11.847 14.3369C11.4397 15.2718 11.3198 16.3071 11.5027 17.3106C11.6856 18.314 12.1629 19.24 12.8737 19.9703C13.5845 20.7006 14.4965 21.2022 15.4932 21.4108C16.4899 21.6193 17.526 21.5254 18.4692 21.1412C19.4123 20.757 20.2198 20.0998 20.7884 19.2536C21.3569 18.4074 21.6608 17.4107 21.6611 16.3907C21.6615 15.052 21.1396 13.7662 20.2068 12.8077C19.274 11.8492 18.0041 11.2941 16.6682 11.2606ZM45.7289 12.7227C45.0229 11.9807 44.1112 11.4676 43.1114 11.2497C42.1116 11.0317 41.0695 11.1188 40.1195 11.4997C39.1696 11.8806 38.3553 12.5379 37.7817 13.3868C37.2082 14.2357 36.9017 15.2374 36.9017 16.2624C36.9017 17.2875 37.2082 18.289 37.7817 19.1379C38.3553 19.9868 39.1696 20.6441 40.1195 21.025C41.0695 21.406 42.1116 21.493 43.1114 21.275C44.1112 21.0571 45.0229 20.5441 45.7289 19.8022L42.1955 16.2624L45.7289 12.7227Z" fill="#FF0553"/>
<path d="M35.4361 10.9013C36.2321 9.96465 37.2133 9.20353 38.3177 8.66585C39.4222 8.12817 40.6259 7.8256 41.8529 7.77739C43.0799 7.72919 44.3035 7.93639 45.4466 8.38577C46.5897 8.83515 47.6274 9.51694 48.4942 10.3883L53.9734 4.87359C51.6629 2.55425 48.7214 0.968433 45.5164 0.314204C42.3114 -0.340025 38.9849 -0.0335995 35.9527 1.19515C32.9205 2.42389 30.3169 4.52049 28.4673 7.22303C26.6177 9.92556 25.604 13.1141 25.5529 16.3905C25.5644 18.6341 24.7555 20.8043 23.2791 22.4913C21.8026 24.1784 19.7607 25.2656 17.5388 25.5476C15.5764 25.748 13.6031 25.2884 11.9301 24.2413C10.2572 23.1942 8.97964 21.6192 8.29891 19.7644C7.61818 17.9096 7.57293 15.8806 8.17038 13.9972C8.76783 12.1138 9.974 10.4832 11.5987 9.36237L12.1107 9.0289H12.3668L12.7764 8.82366L13.1605 8.64409L13.4933 8.51587L14.0055 8.3363H14.1847L14.8504 8.1824C16.4346 7.87345 18.0732 8.00661 19.5871 8.56722C20.201 8.80021 20.8692 8.84901 21.5103 8.70781C22.1514 8.5666 22.7376 8.24151 23.1973 7.77207L26.9099 3.8732C23.9636 1.51976 20.3084 0.23589 16.5402 0.230916C15.4913 0.227827 14.4448 0.33094 13.4165 0.538706C13.0089 0.614009 12.6069 0.716832 12.2131 0.846495H11.8035L10.8818 1.15428L10.2416 1.41072L9.60154 1.69299L8.73101 2.10333L8.34689 2.33425L7.29719 2.9755C6.44649 3.56171 5.64956 4.22257 4.91595 4.95046C2.98725 6.88605 1.56349 9.26729 0.770126 11.8842C-0.0232408 14.5011 -0.161791 17.2733 0.366624 19.9565C0.895038 22.6397 2.07421 25.1516 3.80022 27.2705C5.52624 29.3895 7.74608 31.0504 10.2641 32.1072C12.7821 33.1639 15.5209 33.5838 18.2391 33.33C20.9573 33.0762 23.5715 32.1564 25.8512 30.6517C28.1309 29.1469 30.006 27.1036 31.3114 24.7016C32.6167 22.2996 33.3122 19.6127 33.3365 16.8778C33.3109 14.7 34.0546 12.5831 35.4361 10.9013ZM42.1955 25.5733C40.4187 25.5729 38.6817 25.0463 37.2028 24.0599L31.8003 29.7286C35.0037 32.2832 39.0326 33.5692 43.1208 33.3422C47.209 33.1152 51.0714 31.391 53.9734 28.4974L48.4942 22.9826C46.8198 24.6474 44.5546 25.5791 42.1955 25.5733Z" fill="#0063EA"/>
<path d="M5.78648 37.8338C1.53619 37.8338 1.25455 40.3989 1.15214 44.1182V46.1445C1.15214 49.915 1.43378 52.6854 5.78648 52.6854C10.1392 52.6854 10.3953 49.915 10.3953 46.1445V44.1182C10.2928 40.5015 10.0112 37.8338 5.78648 37.8338ZM7.68123 47.2476C7.68123 48.607 7.68118 50.5564 5.78648 50.5564C3.89177 50.5564 3.86617 48.6326 3.86617 47.4783V43.5282C3.86617 42.4509 3.68694 39.9628 5.78648 39.9628C7.88601 39.9628 7.68123 42.5278 7.68123 43.6051V47.2476ZM16.7195 43.2973C15.9002 42.7843 15.2088 42.374 15.2088 41.2967C15.2088 40.2194 15.7721 39.9628 16.6682 39.9628C18.1277 39.9628 18.2301 41.2197 18.2045 42.5279H20.7649C20.7649 41.1171 20.7649 37.8852 16.6427 37.8852C13.8518 37.8852 12.4948 39.1934 12.4948 41.6302C12.5075 42.401 12.7481 43.1508 13.1861 43.7847C14.4255 45.06 15.829 46.1642 17.3596 47.068C17.681 47.2628 17.9466 47.5375 18.1306 47.8656C18.3145 48.1938 18.4106 48.5641 18.4094 48.9404C18.4432 49.1649 18.4244 49.3942 18.3544 49.6101C18.2845 49.8261 18.1653 50.0228 18.0063 50.1845C17.8472 50.3463 17.6528 50.4688 17.4383 50.5423C17.2239 50.6157 16.9953 50.6381 16.7707 50.6077C15.4649 50.6077 15.0552 49.6072 15.1064 48.2221V47.3758H12.546V48.4274C12.4653 49.0122 12.521 49.6078 12.7086 50.1675C12.8962 50.7272 13.2107 51.2357 13.6274 51.6532C14.0442 52.0707 14.5518 52.3858 15.1105 52.5738C15.6692 52.7617 16.2637 52.8174 16.8475 52.7366C17.4122 52.8094 17.9859 52.7565 18.5278 52.5814C19.0697 52.4064 19.5664 52.1136 19.9822 51.724C20.398 51.3343 20.7228 50.8574 20.9334 50.3275C21.1439 49.7975 21.235 49.2276 21.2002 48.6583C21.2356 48.106 21.1483 47.5526 20.9446 47.0381C20.741 46.5236 20.426 46.0607 20.0224 45.6828C18.9842 44.8039 17.8799 44.0064 16.7195 43.2973ZM27.7037 50.5564C25.8858 50.5564 25.7834 48.6326 25.7834 47.4783V43.5282C25.7834 42.4509 25.6297 39.9628 27.7037 39.9628C29.0095 39.9628 28.907 41.6557 29.0094 42.5279H31.5698C31.595 42.1692 31.595 41.8093 31.5698 41.4506C31.5904 40.9456 31.5028 40.4422 31.3129 39.974C31.123 39.5058 30.8353 39.0837 30.469 38.7362C30.1028 38.3887 29.6665 38.1237 29.1895 37.9592C28.7125 37.7948 28.2058 37.7346 27.7037 37.7826C23.479 37.7826 23.1717 40.3475 23.0693 44.0668V46.0933C23.0693 49.8638 23.351 52.634 27.7037 52.634C30.6481 52.634 31.5186 50.6589 31.6466 48.0682C31.6466 47.7861 31.6466 47.5041 31.6466 47.2476H29.0862C28.9838 48.1966 29.1375 50.5564 27.7037 50.5564ZM36.0762 38.1673L32.6964 52.3519H35.5385L36.2298 48.7608H39.3279L40.0192 52.3519H42.8613L39.6351 38.1673H36.0762ZM36.6395 46.6832L37.4332 42.6561C37.5563 42.0032 37.6418 41.3438 37.6893 40.6811C37.6893 40.3477 37.6893 40.0397 37.6893 39.7319C37.6893 40.0397 37.6893 40.3477 37.6893 40.6811C37.7454 41.3443 37.8394 42.0036 37.9709 42.6561L38.6878 46.6832H36.6395ZM53.1541 47.6065C53.1541 46.2471 52.6933 45.2467 51.1314 45.0415C52.8981 44.785 53.2822 43.1692 53.2822 41.6302C53.2822 39.0651 51.5667 38.2186 49.2623 38.2186H44.2695V52.4031H46.8299V46.3754H47.3164C48.0636 46.332 48.8133 46.3925 49.544 46.5549C50.4657 46.8115 50.4401 48.0169 50.4657 48.889C50.4054 50.0932 50.5001 51.3002 50.7474 52.4801H53.6406V52.2237C53.0773 51.6594 53.1541 48.1965 53.1541 47.6065ZM49.0319 44.1695H46.9579V40.245H48.9294C49.928 40.245 50.5937 40.5272 50.5937 42.1175C50.5937 43.7078 49.8512 44.0926 49.0319 44.1695ZM84.5704 57.4819H79.0655V71.6664H83.9559C84.627 71.711 85.298 71.5785 85.9018 71.2817C88.0781 70.0249 88.0781 66.7929 88.0781 63.997C88.248 62.3249 87.9834 60.6373 87.31 59.0979C87.0233 58.6105 86.6156 58.2055 86.1267 57.9223C85.6377 57.6392 85.0839 57.4876 84.5191 57.4819H84.5704ZM82.8549 69.5887H81.7027V59.5596H83.4438C85.0313 59.5596 85.3641 60.8934 85.3641 64.2279C85.3129 68.332 85.1593 69.5887 82.8037 69.5887H82.8549ZM73.7654 71.6664H76.3259V57.4819H73.7654V71.6664ZM95.0168 57.1485C90.7922 57.1485 90.5105 59.7135 90.3825 63.4328V65.4591C90.3825 69.2297 90.6641 71.9999 95.0168 71.9999C99.3695 71.9999 99.6512 69.2297 99.6512 65.4591V63.4328C99.4719 59.8161 99.1903 57.1485 94.9657 57.1485H95.0168ZM96.9116 66.562C96.9116 67.9215 96.9115 69.8709 95.0168 69.8709C93.1221 69.8709 93.0965 67.9472 93.0965 66.793V62.8427C93.0965 61.7654 92.9429 59.2775 95.0168 59.2775C97.0908 59.2775 96.9116 61.8425 96.9116 62.9198V66.562ZM5.70967 69.8709C3.89178 69.8709 3.81499 67.9472 3.81499 66.793V62.8427C3.81499 61.7654 3.63573 59.2775 5.70967 59.2775C7.01548 59.2775 6.91311 60.9704 7.04113 61.8425H9.60154C9.62667 61.4838 9.62667 61.1237 9.60154 60.7651C9.6221 60.2601 9.53451 59.7566 9.34463 59.2884C9.15474 58.8202 8.86694 58.3982 8.50066 58.0507C8.13438 57.7032 7.69808 57.4384 7.22108 57.2739C6.74409 57.1094 6.23747 57.0491 5.7353 57.0971C1.51062 57.0971 1.229 59.6622 1.12659 63.3814V65.4078C1.12659 69.1783 1.4082 71.9485 5.7353 71.9485C8.67977 71.9485 9.55033 69.9735 9.67835 67.3829C9.67835 67.1007 9.67835 66.8185 9.67835 66.562H7.11794C6.93871 67.5111 7.11792 69.8709 5.65849 69.8709H5.70967ZM14.1078 57.4819L10.6257 71.6664H13.4422L14.1334 68.0755H17.2315L17.9484 71.6664H20.8673L17.6668 57.4819H14.1078ZM14.6711 65.9978L15.4649 61.9707C15.5929 61.3038 15.6441 60.6625 15.7209 59.9956C15.7977 59.3287 15.7209 59.3544 15.7209 59.0466C15.7209 59.3544 15.7209 59.6622 15.7209 59.9956C15.7209 60.3291 15.8489 61.3038 15.9769 61.9707L16.6939 65.9978H14.6711ZM31.109 66.8955C31.109 65.536 30.6225 64.5357 29.0607 64.3305C30.853 64.074 31.237 62.458 31.237 60.919C31.237 58.354 29.496 57.5076 27.2172 57.5076H22.2244V71.6921H24.7848V65.5873H25.2456C26.0013 65.5429 26.7596 65.6034 27.4988 65.7669C28.3949 66.0234 28.395 67.2289 28.395 68.101C28.3482 69.3049 28.4427 70.5102 28.6766 71.6921H31.5955V71.4356C31.109 70.9739 31.109 67.5111 31.109 66.8955ZM26.9355 63.4583H24.8616V59.5339H26.8075C27.8317 59.5339 28.4718 59.816 28.4718 61.4063C28.4718 62.9966 27.8317 63.407 26.9611 63.484L26.9355 63.4583ZM46.5483 57.4563L43.1685 71.6407H46.0106L46.7019 68.0498H49.8L50.4913 71.6407H53.3333L50.1073 57.4563H46.5483ZM47.1116 65.9721L47.9053 61.945C48.0333 61.2781 48.0845 60.6368 48.1613 59.9699C48.2381 59.303 48.1613 59.3287 48.1613 59.0209C48.1613 59.3287 48.1613 59.6365 48.1613 59.9699C48.2175 60.6331 48.3115 61.2926 48.4429 61.945L49.1599 65.9721H47.1116ZM39.9936 64.0484C40.5721 63.8182 41.0561 63.3993 41.3674 62.8593C41.6787 62.3194 41.7992 61.6899 41.7091 61.0729C41.7873 60.1592 41.5325 59.248 40.9921 58.5079C40.6105 58.1101 40.1396 57.8096 39.6185 57.6311C39.0974 57.4527 38.5413 57.4015 37.9965 57.4819H33.6694V71.6664H38.3294C39.1248 71.7522 39.9234 71.5365 40.5679 71.0618C41.2124 70.587 41.6561 69.8876 41.8115 69.1014C41.9568 68.5317 42.0257 67.9451 42.0164 67.3572C42.0932 65.536 41.5043 64.3306 40.0192 64.0741L39.9936 64.0484ZM36.3834 59.5339H37.6124C38.8158 59.5339 39.0463 60.0982 39.0463 61.1499C39.1069 61.6825 38.9995 62.2206 38.739 62.6888C38.3294 63.2275 37.51 63.1762 36.8699 63.1762H36.3834V59.5339ZM38.5342 69.4092C38.0202 69.5642 37.4808 69.6164 36.9467 69.5631H36.3834V65.2539H37.382C39.0463 65.2539 39.3279 65.8952 39.3279 67.4342C39.3535 68.1781 39.2767 69.1014 38.5598 69.4605L38.5342 69.4092ZM66.9547 57.4819H64.3943V71.6664H71.9476V69.5887H66.9547V57.4819ZM57.5324 57.4819H54.972V71.6664H62.4997V69.5887H57.6093L57.5324 57.4819Z" fill="#0063EA"/>
</g>
<defs>
<clipPath id="clip0_315_2388">
<rect width="99.6" height="72" fill="white"/>
</clipPath>
</defs>
</svg>
