<svg width="116" height="32" viewBox="0 0 116 32" fill="none" xmlns="http://www.w3.org/2000/svg">
<g clip-path="url(#clip0_493_6)">
<path d="M37.5683 14.1673V21.7421H34.2217V15.0726C34.2217 14.6521 34.1173 14.2751 33.9067 13.9416C33.7082 13.6035 33.4236 13.3239 33.082 13.1314C32.7359 12.9312 32.3421 12.8284 31.9423 12.8338C31.5224 12.8338 31.1384 12.933 30.7904 13.1314C30.449 13.324 30.1646 13.6036 29.9662 13.9416C29.7638 14.2751 29.6629 14.6521 29.6629 15.0726V21.7421H26.3163L26.3047 3.87805H29.6513L29.6629 10.7139C30.0743 10.3283 30.5559 10.025 31.0816 9.82073C31.6344 9.60584 32.2227 9.49684 32.8158 9.49941C33.6968 9.49941 34.4925 9.70937 35.2042 10.1305C35.9117 10.5397 36.504 11.1216 36.9256 11.8217C37.3548 12.5201 37.5683 13.3019 37.5683 14.1673ZM47.4938 9.83291H51.0585L44.414 27.6969H40.8737L43.0562 21.7421L38.6912 9.83291H42.3527L44.7295 17.2523L47.4938 9.83291ZM61.0519 9.83291H64.3985V21.9085C64.3985 22.7901 64.217 23.5841 63.8533 24.2906C63.4925 25.0013 62.9839 25.6266 62.3615 26.1245C61.7392 26.6326 61.02 27.0218 60.2034 27.2915C59.3741 27.5649 58.506 27.7019 57.6328 27.6969C56.7761 27.6969 55.9554 27.5299 55.1713 27.1964C54.3976 26.8778 53.6903 26.4175 53.0856 25.8392C52.4795 25.2592 52.0068 24.5922 51.6675 23.8382L54.7229 22.4688C54.8929 22.8655 55.1231 23.2071 55.4137 23.4925C55.7076 23.7751 56.0537 23.9977 56.4328 24.1479C56.8202 24.3062 57.2204 24.3857 57.6334 24.3857C58.0624 24.3875 58.4899 24.3355 58.9059 24.2308C59.2965 24.1369 59.6693 23.9802 60.0096 23.7668C60.3327 23.5604 60.5873 23.3023 60.7735 22.9925C60.9591 22.6828 61.0519 22.3215 61.0519 21.9091V20.5275C60.677 20.9829 60.2155 21.3594 59.6941 21.6353C59.1686 21.9126 58.5585 22.0518 57.8631 22.0518C56.9902 22.0518 56.1695 21.8894 55.4021 21.5634C54.6529 21.245 53.9701 20.7885 53.3895 20.2178C52.8072 19.6378 52.3502 18.9708 52.019 18.2168C51.6872 17.4628 51.5219 16.6526 51.5219 15.7872C51.5219 14.9218 51.6872 14.1122 52.019 13.3582C52.3437 12.6132 52.8088 11.9378 53.3889 11.3688C53.9713 10.7893 54.6417 10.3364 55.4015 10.0116C56.1805 9.68377 57.018 9.51763 57.8631 9.52319C58.5585 9.52319 59.1686 9.66587 59.6941 9.95181C60.2166 10.2209 60.6787 10.594 61.0519 11.048V9.83291ZM57.9118 18.8954C58.4616 18.8954 58.9587 18.7568 59.403 18.479C59.8427 18.1987 60.202 17.8089 60.4458 17.348C60.7045 16.8793 60.8338 16.3591 60.8338 15.7878C60.8338 15.2159 60.7045 14.6956 60.4458 14.2276C60.2066 13.7633 59.8462 13.3723 59.403 13.096C58.9587 12.8176 58.4616 12.679 57.9118 12.679C57.3701 12.679 56.873 12.8182 56.4206 13.096C55.9741 13.3757 55.6067 13.765 55.3534 14.227C55.0866 14.6956 54.9532 15.2159 54.9532 15.7872C54.9532 16.3591 55.0866 16.8834 55.3534 17.359C55.6093 17.816 55.9764 18.201 56.4206 18.4784C56.8683 18.7551 57.3849 18.8999 57.9112 18.896L57.9118 18.8954ZM66.9865 21.7421L66.9743 9.83291H70.3209L70.3331 10.7145C70.7445 10.3288 71.2261 10.0256 71.7517 9.82131C72.3043 9.60628 72.8924 9.49708 73.4854 9.49941C73.9302 9.49941 74.3745 9.56321 74.8194 9.68965L73.4975 13.0131C73.2171 12.8959 72.9164 12.835 72.6125 12.8338C72.192 12.8338 71.808 12.933 71.4606 13.1314C71.1191 13.3241 70.8346 13.6036 70.6358 13.9416C70.434 14.2751 70.3331 14.6521 70.3331 15.0726V21.7421H66.9865ZM84.1342 9.83291H87.4808V21.7421H84.122L83.9642 20.5032C83.6496 20.9631 83.235 21.3458 82.7514 21.6226C82.2584 21.9085 81.6808 22.0518 81.0178 22.0518C80.1124 22.0518 79.268 21.8847 78.4838 21.5518C77.7116 21.2264 77.008 20.7576 76.4103 20.1703C75.8155 19.5875 75.338 18.896 75.0038 18.1333C74.672 17.3555 74.5067 16.5221 74.5067 15.6323C74.5067 14.7832 74.6639 13.9892 74.9794 13.2509C75.2909 12.5181 75.7442 11.8542 76.3134 11.2974C76.8831 10.7364 77.5535 10.288 78.2895 9.97559C79.0412 9.65833 79.8497 9.49941 80.7145 9.49941C81.4586 9.49941 82.125 9.65427 82.7155 9.96341C83.3008 10.2636 83.83 10.6625 84.2797 11.1426L84.1342 9.83291ZM80.9331 18.8954C81.4824 18.8954 81.9795 18.7568 82.4243 18.479C82.8669 18.2034 83.2304 17.8177 83.4793 17.3596C83.7396 16.8769 83.8731 16.3361 83.8674 15.7878C83.8674 15.2078 83.738 14.684 83.4793 14.2154C83.2304 13.7573 82.8669 13.3716 82.4243 13.096C81.9773 12.8174 81.4598 12.6727 80.9331 12.679C80.3752 12.679 79.87 12.8182 79.417 13.096C78.9646 13.3738 78.605 13.7514 78.3382 14.227C78.0714 14.6956 77.938 15.2159 77.938 15.7872C77.938 16.3591 78.0714 16.8834 78.3382 17.359C78.6031 17.8171 78.9781 18.2018 79.4292 18.4784C79.8822 18.7568 80.3833 18.8954 80.9331 18.8954ZM93.3753 27.6969H90.0287V9.83291H93.3753V11.1188C93.7594 10.6538 94.2285 10.266 94.7574 9.97617C95.291 9.67399 95.9134 9.52319 96.625 9.52319C97.5061 9.52319 98.3302 9.68559 99.0982 10.0116C99.8592 10.327 100.551 10.788 101.136 11.3688C101.716 11.938 102.181 12.6134 102.506 13.3582C102.837 14.1122 103.003 14.9218 103.003 15.7872C103.003 16.6526 102.837 17.4669 102.506 18.229C102.181 18.9808 101.716 19.6639 101.136 20.2416C100.549 20.8162 99.8571 21.273 99.0982 21.5872C98.3302 21.9126 97.5061 22.0756 96.625 22.0756C95.9134 22.0756 95.291 21.9248 94.7574 21.6232C94.2319 21.3281 93.7637 20.9408 93.3753 20.48V27.6969ZM96.5763 12.679C96.0265 12.679 95.5294 12.8217 95.0851 13.1082C94.648 13.3866 94.2891 13.7718 94.0423 14.2276C93.7917 14.6956 93.6665 15.2159 93.6665 15.7878C93.6665 16.3591 93.7917 16.8828 94.0423 17.3596C94.2891 17.8153 94.648 18.2006 95.0851 18.479C95.5294 18.7568 96.0265 18.8954 96.5763 18.8954C97.1262 18.8954 97.6273 18.7568 98.0797 18.479C98.5348 18.2072 98.911 17.8214 99.1712 17.3596C99.4462 16.8909 99.5836 16.3672 99.5836 15.7878C99.5836 15.2234 99.4502 14.7078 99.1834 14.2392C98.9258 13.7724 98.5492 13.3822 98.0919 13.1082C97.6387 12.8219 97.1123 12.6729 96.5763 12.679ZM115.568 14.1673V21.7421H112.222V15.0726C112.222 14.6521 112.116 14.2751 111.906 13.9416C111.708 13.6033 111.423 13.3237 111.082 13.1314C110.735 12.9312 110.342 12.8284 109.942 12.8338C109.522 12.8338 109.138 12.933 108.79 13.1314C108.449 13.3239 108.164 13.6035 107.966 13.9416C107.763 14.2751 107.662 14.6521 107.662 15.0726V21.7421H104.316L104.304 3.87805H107.65L107.662 10.7139C108.074 10.3282 108.555 10.025 109.081 9.82073C109.634 9.6059 110.222 9.4969 110.815 9.49941C111.696 9.49941 112.492 9.70937 113.204 10.1305C113.911 10.5396 114.504 11.1215 114.925 11.8217C115.354 12.5201 115.568 13.3019 115.568 14.1673Z" fill="#081026"/>
<path d="M15.0597 4.30319L11.2949 6.43005L7.53014 8.55633L3.76478 10.6832V23.4432L7.53014 21.3169L11.2943 19.19V14.9369L7.53014 17.0632V12.81L11.2943 10.6832L15.0597 8.55691V21.3169L11.2949 23.4432L7.53014 25.57L3.7642 27.6969L0 29.8232L3.76478 31.95L7.53014 29.8232L11.2943 27.6969L15.0603 25.57L18.8256 23.4438V2.17633L15.0597 0.0500488V4.30319Z" fill="#081026"/>
</g>
<defs>
<clipPath id="clip0_493_6">
<rect width="116" height="32" fill="white"/>
</clipPath>
</defs>
</svg>
