<svg width="100" height="28" viewBox="0 0 100 28" fill="none" xmlns="http://www.w3.org/2000/svg">
<g clip-path="url(#clip0_501_2)">
<mask id="mask0_501_2" style="mask-type:luminance" maskUnits="userSpaceOnUse" x="0" y="0" width="100" height="28">
<path d="M100 0H0V28H100V0Z" fill="white"/>
</mask>
<g mask="url(#mask0_501_2)">
<path d="M32.3868 12.3964V19.0244H29.5018V13.1885C29.5018 12.8206 29.4118 12.4907 29.2302 12.1989C29.0591 11.9031 28.8137 11.6584 28.5193 11.49C28.2209 11.3148 27.8814 11.2249 27.5368 11.2296C27.1748 11.2296 26.8437 11.3164 26.5437 11.49C26.2494 11.6585 26.0043 11.9032 25.8332 12.1989C25.6587 12.4907 25.5718 12.8206 25.5718 13.1885V19.0244H22.6868L22.6768 3.39331H25.5618L25.5718 9.37468C25.9264 9.03728 26.3416 8.77189 26.7948 8.59316C27.2713 8.40513 27.7785 8.30975 28.2898 8.312C29.0493 8.312 29.7352 8.49572 30.3487 8.8642C30.9587 9.22225 31.4693 9.73142 31.8327 10.344C32.2027 10.9551 32.3868 11.6392 32.3868 12.3964ZM40.9432 8.60381H44.0162L38.2882 24.2348H35.2362L37.1177 19.0244L33.3548 8.60381H36.5112L38.5602 15.0958L40.9432 8.60381ZM52.6312 8.60381H55.5162V19.17C55.5162 19.9414 55.3598 20.6361 55.0462 21.2543C54.7352 21.8762 54.2968 22.4233 53.7602 22.859C53.2237 23.3035 52.6037 23.6441 51.8998 23.8801C51.1849 24.1193 50.4365 24.2392 49.6837 24.2348C48.9452 24.2348 48.2377 24.0887 47.5618 23.7969C46.8948 23.5181 46.285 23.1153 45.7637 22.6093C45.2412 22.1018 44.8337 21.5182 44.5412 20.8584L47.1752 19.6602C47.3218 20.0073 47.5202 20.3062 47.7707 20.556C48.0241 20.8032 48.3224 20.998 48.6493 21.1294C48.9832 21.2679 49.3282 21.3375 49.6843 21.3375C50.0541 21.3391 50.4226 21.2936 50.7812 21.202C51.118 21.1198 51.4393 20.9827 51.7327 20.796C52.0112 20.6154 52.2307 20.3895 52.3912 20.1185C52.5512 19.8475 52.6312 19.5313 52.6312 19.1705V17.9616C52.3081 18.3601 51.9102 18.6895 51.4607 18.9309C51.0077 19.1735 50.4818 19.2953 49.8823 19.2953C49.1298 19.2953 48.4223 19.1532 47.7607 18.868C47.1149 18.5894 46.5262 18.19 46.0257 17.6906C45.5237 17.1831 45.1298 16.5995 44.8443 15.9397C44.5582 15.28 44.4157 14.571 44.4157 13.8138C44.4157 13.0566 44.5582 12.3482 44.8443 11.6884C45.1242 11.0366 45.5251 10.4456 46.0252 9.94772C46.5273 9.44065 47.1052 9.04437 47.7602 8.76017C48.4318 8.47332 49.1537 8.32794 49.8823 8.33281C50.4818 8.33281 51.0077 8.45765 51.4607 8.70785C51.9112 8.9433 52.3095 9.26977 52.6312 9.66702V8.60381ZM49.9243 16.5335C50.3982 16.5335 50.8268 16.4122 51.2098 16.1691C51.5888 15.9239 51.8986 15.5828 52.1087 15.1795C52.3318 14.7694 52.4432 14.3142 52.4432 13.8143C52.4432 13.3139 52.3318 12.8587 52.1087 12.4492C51.9025 12.0429 51.5918 11.7008 51.2098 11.459C50.8268 11.2154 50.3982 11.0941 49.9243 11.0941C49.4573 11.0941 49.0287 11.2159 48.6387 11.459C48.2538 11.7038 47.9371 12.0444 47.7187 12.4486C47.4887 12.8587 47.3737 13.3139 47.3737 13.8138C47.3737 14.3142 47.4887 14.773 47.7187 15.1891C47.9393 15.589 48.2558 15.9259 48.6387 16.1686C49.0247 16.4107 49.4706 16.5369 49.9243 16.5335ZM57.7473 19.0244L57.7368 8.60381H60.6218L60.6323 9.3752C60.9869 9.03772 61.4021 8.77242 61.8552 8.59366C62.3316 8.40551 62.8386 8.30996 63.3498 8.312C63.7332 8.312 64.1162 8.36783 64.4998 8.47846L63.3602 11.3865C63.1185 11.2839 62.8593 11.2306 62.5973 11.2296C62.2348 11.2296 61.9037 11.3164 61.6043 11.49C61.3099 11.6586 61.0646 11.9032 60.8932 12.1989C60.7193 12.4907 60.6323 12.8206 60.6323 13.1885V19.0244H57.7473ZM72.5298 8.60381H75.4148V19.0244H72.5193L72.3832 17.9403C72.112 18.3427 71.7546 18.6776 71.3377 18.9198C70.9127 19.17 70.4148 19.2953 69.8432 19.2953C69.0627 19.2953 68.3348 19.1491 67.6587 18.8578C66.9931 18.5731 66.3865 18.1629 65.8712 17.649C65.3585 17.1391 64.9468 16.534 64.6587 15.8667C64.3727 15.1861 64.2302 14.4569 64.2302 13.6783C64.2302 12.9353 64.3657 12.2406 64.6377 11.5946C64.9062 10.9534 65.297 10.3724 65.7877 9.88524C66.2788 9.39437 66.8568 9.00202 67.4912 8.72866C68.1393 8.45106 68.8362 8.312 69.5818 8.312C70.2232 8.312 70.7977 8.4475 71.3068 8.718C71.8113 8.98067 72.2675 9.3297 72.6552 9.74979L72.5298 8.60381ZM69.7702 16.5335C70.2437 16.5335 70.6723 16.4122 71.0557 16.1691C71.4373 15.928 71.7506 15.5905 71.9652 15.1897C72.1896 14.7673 72.3047 14.2941 72.2998 13.8143C72.2998 13.3068 72.1882 12.8485 71.9652 12.4385C71.7506 12.0377 71.4373 11.7002 71.0557 11.459C70.6704 11.2152 70.2243 11.0886 69.7702 11.0941C69.2893 11.0941 68.8537 11.2159 68.4632 11.459C68.0732 11.7021 67.7632 12.0325 67.5332 12.4486C67.3032 12.8587 67.1882 13.3139 67.1882 13.8138C67.1882 14.3142 67.3032 14.773 67.5332 15.1891C67.7616 15.59 68.0849 15.9266 68.4737 16.1686C68.8643 16.4122 69.2962 16.5335 69.7702 16.5335ZM80.4962 24.2348H77.6112V8.60381H80.4962V9.72897C80.8274 9.32209 81.2318 8.98277 81.6877 8.72917C82.1477 8.46476 82.6843 8.33281 83.2977 8.33281C84.0573 8.33281 84.7677 8.47491 85.4298 8.76017C86.0858 9.03614 86.6822 9.43952 87.1865 9.94772C87.6865 10.4458 88.0874 11.0367 88.3675 11.6884C88.6529 12.3482 88.796 13.0566 88.796 13.8138C88.796 14.571 88.6529 15.2836 88.3675 15.9504C88.0874 16.6082 87.6865 17.2059 87.1865 17.7114C86.6805 18.2142 86.084 18.6139 85.4298 18.8888C84.7677 19.1735 84.0573 19.3162 83.2977 19.3162C82.6843 19.3162 82.1477 19.1842 81.6877 18.9203C81.2347 18.6621 80.8311 18.3232 80.4962 17.92V24.2348ZM83.2557 11.0941C82.7818 11.0941 82.3532 11.219 81.9702 11.4697C81.5934 11.7133 81.284 12.0503 81.0712 12.4492C80.8552 12.8587 80.7473 13.3139 80.7473 13.8143C80.7473 14.3142 80.8552 14.7725 81.0712 15.1897C81.284 15.5884 81.5934 15.9255 81.9702 16.1691C82.3532 16.4122 82.7818 16.5335 83.2557 16.5335C83.7298 16.5335 84.1618 16.4122 84.5518 16.1691C84.9441 15.9313 85.2684 15.5937 85.4927 15.1897C85.7298 14.7796 85.8482 14.3213 85.8482 13.8143C85.8482 13.3205 85.7332 12.8693 85.5032 12.4593C85.2812 12.0509 84.9565 11.7094 84.5623 11.4697C84.1716 11.2192 83.7178 11.0888 83.2557 11.0941ZM99.6279 12.3964V19.0244H96.7434V13.1885C96.7434 12.8206 96.652 12.4907 96.471 12.1989C96.3003 11.9029 96.0546 11.6583 95.7606 11.49C95.4615 11.3148 95.1227 11.2249 94.7779 11.2296C94.4158 11.2296 94.0848 11.3164 93.7848 11.49C93.4908 11.6584 93.2451 11.9031 93.0744 12.1989C92.8994 12.4907 92.8124 12.8206 92.8124 13.1885V19.0244H89.9279L89.9175 3.39331H92.802L92.8124 9.37468C93.1675 9.03719 93.5822 8.77189 94.0356 8.59316C94.5124 8.40518 95.0193 8.3098 95.5305 8.312C96.2899 8.312 96.9762 8.49572 97.5899 8.8642C98.1994 9.22217 98.7106 9.73133 99.0736 10.344C99.4434 10.9551 99.6279 11.6392 99.6279 12.3964Z" fill="black"/>
<path d="M12.9825 3.7652L9.73698 5.6262L6.4915 7.4867L3.2455 9.34771V20.5127L6.4915 18.6522L9.73647 16.7912V13.0697L6.4915 14.9302V11.2087L9.73647 9.34771L12.9825 7.4872V18.6522L9.73698 20.5127L6.4915 22.3737L3.245 24.2347L0 26.0952L3.2455 27.9562L6.4915 26.0952L9.73647 24.2347L12.983 22.3737L16.229 20.5132V1.9042L12.9825 0.0437012V3.7652Z" fill="black"/>
</g>
</g>
<defs>
<clipPath id="clip0_501_2">
<rect width="100" height="28" fill="white"/>
</clipPath>
</defs>
</svg>
