<svg width="100" height="20" viewBox="0 0 100 20" fill="none" xmlns="http://www.w3.org/2000/svg">
<g clip-path="url(#clip0_501_9)">
<path d="M66.4766 0.00830078H83.8948V3.21512H76.9852V20.0857H73.5301V3.21512H66.4766V0.00830078Z" fill="black"/>
<path d="M37.8303 0.00830078V3.21512H23.8684V8.3739H35.0966V11.5807H23.8684V16.8789H37.8303V20.0857H20.4136V3.21512H20.4121V0.00830078H37.8303Z" fill="black"/>
<path d="M46.5282 0.0168457H42.0068L58.2013 20.0943H62.7358L54.6375 10.0625L62.7228 0.0321635L58.2013 0.0391331L52.3738 7.25825L46.5282 0.0168457Z" fill="black"/>
<path d="M51.168 14.3581L48.9038 11.55L41.9941 20.1095H46.5284L51.168 14.3581Z" fill="black"/>
<path fill-rule="evenodd" clip-rule="evenodd" d="M20.5348 20.0858L4.31855 0H0V20.0774H3.45485V4.29154L16.1946 20.0858H20.5348Z" fill="black"/>
<path d="M84.6714 19.9632C84.4183 19.9632 84.2031 19.8758 84.0229 19.7009C83.8427 19.526 83.7536 19.3143 83.7559 19.0636C83.7536 18.8197 83.8427 18.6103 84.0229 18.4354C84.2031 18.2605 84.4183 18.1731 84.6714 18.1731C84.9148 18.1731 85.1277 18.2605 85.3079 18.4354C85.4907 18.6103 85.5818 18.8197 85.5843 19.0636C85.5818 19.2292 85.5397 19.381 85.4554 19.5168C85.3688 19.6549 85.259 19.763 85.1206 19.8412C84.9848 19.9218 84.8351 19.9632 84.6714 19.9632Z" fill="black"/>
<path d="M90.5685 11.5051H92.0994V17.3885C92.0972 17.9292 91.9799 18.3917 91.7507 18.7805C91.519 19.1694 91.1982 19.4662 90.7862 19.6756C90.3766 19.8826 89.8967 19.9885 89.3512 19.9885C88.8525 19.9885 88.4055 19.8987 88.0076 19.7239C87.6096 19.549 87.2936 19.2867 87.0619 18.9416C86.8276 18.5964 86.7129 18.1662 86.7129 17.6508H88.2464C88.2487 17.8763 88.3002 18.0718 88.3984 18.2352C88.4967 18.3986 88.6324 18.5228 88.8058 18.6102C88.9812 18.6977 89.1827 18.7414 89.4096 18.7414C89.6555 18.7414 89.8662 18.6908 90.037 18.5872C90.2078 18.486 90.339 18.3341 90.4304 18.1317C90.5192 17.9315 90.5662 17.683 90.5685 17.3885V11.5051Z" fill="black"/>
<path d="M98.399 13.806C98.3617 13.4493 98.1978 13.1709 97.9122 12.973C97.6242 12.7729 97.2521 12.6739 96.7955 12.6739C96.4749 12.6739 96.1988 12.7223 95.9693 12.8166C95.7399 12.9132 95.562 13.0421 95.4401 13.2054C95.3186 13.3688 95.2577 13.5552 95.2528 13.7646C95.2528 13.9394 95.295 14.0913 95.3769 14.2178C95.4589 14.3467 95.5688 14.4548 95.7117 14.5423C95.8521 14.632 96.0089 14.7056 96.18 14.7654C96.3531 14.8252 96.5264 14.8759 96.6995 14.9173L97.4978 15.1129C97.8186 15.1865 98.13 15.2854 98.4272 15.412C98.7244 15.5362 98.9937 15.695 99.23 15.886C99.4665 16.0769 99.6538 16.307 99.7919 16.5762C99.93 16.8454 100 17.1606 100 17.5242C100 18.0143 99.8739 18.4445 99.6186 18.8173C99.3635 19.1877 98.996 19.4776 98.5138 19.687C98.0338 19.8941 97.4533 19.9999 96.7698 19.9999C96.1097 19.9999 95.5338 19.8987 95.0493 19.6962C94.5625 19.4961 94.183 19.2015 93.9092 18.815C93.6353 18.4284 93.4879 17.9567 93.4668 17.4022H94.9838C95.0049 17.6921 95.0985 17.9338 95.2577 18.1293C95.4191 18.3226 95.6297 18.4652 95.8874 18.5619C96.1473 18.6562 96.4374 18.7045 96.7582 18.7045C97.0929 18.7045 97.3879 18.6539 97.6429 18.555C97.8957 18.456 98.0947 18.318 98.2376 18.1385C98.3828 17.9613 98.4554 17.752 98.4577 17.5127C98.4554 17.2941 98.3896 17.1123 98.2632 16.9697C98.1346 16.827 97.9566 16.7074 97.7295 16.6107C97.5003 16.5141 97.2333 16.4267 96.929 16.3507L95.9599 16.1068C95.2599 15.9297 94.7051 15.6605 94.3 15.2992C93.8929 14.938 93.6914 14.4594 93.6914 13.8589C93.6914 13.3665 93.8272 12.934 94.1013 12.5635C94.3726 12.1931 94.745 11.9054 95.2155 11.7007C95.6884 11.4936 96.2221 11.3923 96.8165 11.3923C97.4206 11.3923 97.9495 11.4936 98.4061 11.7007C98.8625 11.9054 99.2209 12.1908 99.4805 12.5543C99.7404 12.9178 99.8762 13.3343 99.8833 13.806H98.399Z" fill="black"/>
</g>
<defs>
<clipPath id="clip0_501_9">
<rect width="100" height="20" fill="white"/>
</clipPath>
</defs>
</svg>
