<svg width="24" height="24" viewBox="0 0 24 24" fill="none" xmlns="http://www.w3.org/2000/svg">
<mask id="mask0_326_2714" style="mask-type:alpha" maskUnits="userSpaceOnUse" x="0" y="0" width="24" height="24">
<rect width="24" height="24" fill="#D9D9D9"/>
</mask>
<g mask="url(#mask0_326_2714)">
<path d="M14.25 21C14.0333 21 13.8208 20.9792 13.6125 20.9375C13.4042 20.8958 13.2 20.8333 13 20.75V3.25C13.2 3.16667 13.4042 3.10417 13.6125 3.0625C13.8208 3.02083 14.0333 3 14.25 3C15.1167 3 15.8625 3.29167 16.4875 3.875C17.1125 4.45833 17.45 5.175 17.5 6.025C18.4833 6.15833 19.3125 6.6 19.9875 7.35C20.6625 8.1 21 8.98333 21 10C21 10.3667 20.9542 10.7167 20.8625 11.05C20.7708 11.3833 20.6333 11.7 20.45 12C20.6333 12.3 20.7708 12.6208 20.8625 12.9625C20.9542 13.3042 21 13.65 21 14C21 15.0333 20.6625 15.9208 19.9875 16.6625C19.3125 17.4042 18.475 17.8417 17.475 17.975C17.3917 18.8083 17.0458 19.5208 16.4375 20.1125C15.8292 20.7042 15.1 21 14.25 21Z" fill="white"/>
<path opacity="0.2" d="M7.55 20.1125C8.16667 20.7042 8.9 21 9.75 21C9.96667 21 10.1792 20.9792 10.3875 20.9375C10.5958 20.8958 10.8 20.8333 11 20.75V3.275C10.8 3.19167 10.5958 3.125 10.3875 3.075C10.1792 3.025 9.96667 3 9.75 3C8.88333 3 8.13333 3.29583 7.5 3.8875C6.86667 4.47917 6.525 5.2 6.475 6.05C5.49167 6.18333 4.66667 6.62083 4 7.3625C3.33333 8.10417 3 8.98333 3 10C3 10.3667 3.04583 10.7167 3.1375 11.05C3.22917 11.3833 3.36667 11.7 3.55 12C3.36667 12.3 3.22917 12.6208 3.1375 12.9625C3.04583 13.3042 3 13.65 3 14C3 15.0167 3.33333 15.9 4 16.65C4.66667 17.4 5.5 17.8417 6.5 17.975C6.58333 18.8083 6.93333 19.5208 7.55 20.1125Z" fill="white"/>
</g>
</svg>
