<svg width="50" height="31" viewBox="0 0 50 31" fill="none" xmlns="http://www.w3.org/2000/svg">
<path d="M15.4078 10.4641C14.464 10.4404 13.5346 10.6993 12.7382 11.2075C11.9419 11.7158 11.3149 12.4503 10.9372 13.3174C10.5596 14.1844 10.4484 15.1447 10.618 16.0754C10.7876 17.006 11.2302 17.8649 11.8893 18.5423C12.5484 19.2196 13.3941 19.6848 14.3183 19.8783C15.2425 20.0717 16.2032 19.9846 17.0778 19.6282C17.9524 19.2719 18.7011 18.6623 19.2283 17.8775C19.7555 17.0927 20.0373 16.1682 20.0376 15.2221C20.038 13.9806 19.554 12.788 18.689 11.899C17.8241 11.01 16.6465 10.4951 15.4078 10.4641ZM42.355 11.8202C41.7004 11.132 40.855 10.6561 39.9279 10.4539C39.0008 10.2517 38.0344 10.3325 37.1536 10.6858C36.2727 11.0391 35.5176 11.6488 34.9858 12.4361C34.454 13.2235 34.1697 14.1525 34.1697 15.1032C34.1697 16.054 34.454 16.9829 34.9858 17.7702C35.5176 18.5575 36.2727 19.1672 37.1536 19.5205C38.0344 19.8738 39.0008 19.9546 39.9279 19.7524C40.855 19.5502 41.7004 19.0745 42.355 18.3863L39.0786 15.1032L42.355 11.8202Z" fill="#445C7D"/>
<path d="M32.8108 10.1308C33.5489 9.26206 34.4588 8.55612 35.4829 8.05743C36.507 7.55874 37.6232 7.2781 38.761 7.2334C39.8987 7.18869 41.0333 7.38087 42.0933 7.79766C43.1532 8.21446 44.1155 8.84681 44.9193 9.65497L50 4.54014C47.8575 2.38897 45.1299 0.91814 42.158 0.311348C39.1861 -0.295444 36.1016 -0.0112367 33.2899 1.12841C30.4782 2.26807 28.064 4.21265 26.3489 6.71923C24.6337 9.22581 23.6938 12.1832 23.6464 15.222C23.657 17.3029 22.907 19.3157 21.5379 20.8804C20.1688 22.4452 18.2755 23.4536 16.2152 23.7151C14.3954 23.901 12.5657 23.4747 11.0144 22.5035C9.46308 21.5324 8.27847 20.0716 7.64725 18.3513C7.01603 16.631 6.97407 14.749 7.52806 13.0022C8.08206 11.2554 9.20051 9.74301 10.707 8.70345V8.70345L11.1818 8.39416H11.4193L11.7991 8.2038L12.1552 8.03725L12.4639 7.91833L12.9388 7.75178H13.105L13.7222 7.60904C15.1913 7.32249 16.7107 7.44599 18.1145 7.96595C18.6837 8.18205 19.3034 8.22731 19.8978 8.09635C20.4923 7.96538 21.0359 7.66386 21.4621 7.22846L24.9047 3.61228C22.1727 1.42949 18.7833 0.238713 15.2892 0.234099V0.234099C14.3166 0.231235 13.3461 0.32687 12.3927 0.519572V0.519572C12.0147 0.589415 11.6419 0.684782 11.2768 0.805044H10.8969L10.0422 1.09052L9.4487 1.32836L8.85515 1.59017L8.04793 1.97075L7.69174 2.18492L6.71838 2.77968C5.92955 3.32339 5.19057 3.93633 4.51032 4.61144V4.61144C2.72188 6.40668 1.40168 8.61526 0.66601 11.0424C-0.0696574 13.4695 -0.198131 16.0408 0.291853 18.5294C0.781838 21.0181 1.87525 23.3478 3.47574 25.3131C5.07622 27.2784 7.13462 28.8189 9.46949 29.7991C11.8044 30.7792 14.344 31.1687 16.8645 30.9333C19.3851 30.6978 21.8091 29.8447 23.923 28.4491C26.0369 27.0535 27.7756 25.1583 28.9861 22.9304C30.1965 20.7026 30.8414 18.2105 30.864 15.674C30.8402 13.654 31.5298 11.6906 32.8108 10.1308V10.1308ZM39.0787 23.7389C37.4311 23.7386 35.8204 23.2502 34.449 22.3353L29.4394 27.593C32.4099 29.9623 36.1458 31.1551 39.9367 30.9446C43.7275 30.734 47.309 29.1348 50 26.4511L44.9193 21.3361C43.3666 22.8802 41.2662 23.7443 39.0787 23.7389Z" fill="#445C7D"/>
</svg>
