<svg width="54" height="34" viewBox="0 0 54 34" fill="none" xmlns="http://www.w3.org/2000/svg">
<path d="M16.6162 11.2821C15.5984 11.2566 14.596 11.5357 13.7373 12.0837C12.8785 12.6316 12.2023 13.4236 11.795 14.3584C11.3877 15.2933 11.2678 16.3286 11.4507 17.3321C11.6336 18.3355 12.1109 19.2615 12.8217 19.9918C13.5325 20.7221 14.4445 21.2237 15.4412 21.4323C16.4379 21.6408 17.474 21.5469 18.4172 21.1627C19.3603 20.7785 20.1678 20.1213 20.7364 19.2751C21.3049 18.4289 21.6088 17.4322 21.6091 16.4121C21.6095 15.0735 21.0876 13.7877 20.1548 12.8292C19.2219 11.8707 17.9521 11.3156 16.6162 11.2821ZM45.6769 12.7442C44.9709 12.0022 44.0592 11.4891 43.0594 11.2711C42.0596 11.0532 41.0175 11.1402 40.0675 11.5212C39.1176 11.9021 38.3033 12.5594 37.7297 13.4083C37.1562 14.2572 36.8496 15.2588 36.8496 16.2839C36.8496 17.309 37.1562 18.3105 37.7297 19.1594C38.3033 20.0083 39.1176 20.6656 40.0675 21.0465C41.0175 21.4274 42.0596 21.5145 43.0594 21.2965C44.0592 21.0786 44.9709 20.5656 45.6769 19.8237L42.1435 16.2839L45.6769 12.7442Z" fill="white"/>
<path d="M35.3842 10.9228C36.1802 9.98613 37.1614 9.22501 38.2658 8.68733C39.3703 8.14966 40.574 7.84708 41.801 7.79888C43.028 7.75067 44.2516 7.95788 45.3947 8.40726C46.5378 8.85663 47.5755 9.53843 48.4423 10.4098L53.9216 4.89507C51.611 2.57574 48.6695 0.989917 45.4645 0.335688C42.2595 -0.31854 38.9331 -0.0121151 35.9008 1.21663C32.8686 2.44538 30.2651 4.54198 28.4154 7.24451C26.5658 9.94705 25.5521 13.1356 25.501 16.412C25.5125 18.6556 24.7036 20.8258 23.2272 22.5128C21.7507 24.1999 19.7088 25.2871 17.487 25.5691C15.5245 25.7695 13.5512 25.3099 11.8782 24.2628C10.2053 23.2157 8.92776 21.6407 8.24703 19.7859C7.5663 17.9311 7.52105 15.9021 8.1185 14.0187C8.71594 12.1353 9.92212 10.5047 11.5468 9.38385V9.38385L12.0588 9.05039H12.3149L12.7245 8.84514L13.1086 8.66557L13.4415 8.53735L13.9536 8.35778H14.1328L14.7985 8.20389C16.3828 7.89493 18.0213 8.02809 19.5353 8.5887C20.1491 8.8217 20.8173 8.8705 21.4585 8.72929C22.0996 8.58809 22.6858 8.26299 23.1454 7.79356L26.858 3.89468C23.9118 1.54124 20.2565 0.257375 16.4884 0.2524V0.2524C15.4394 0.249312 14.3929 0.352424 13.3647 0.56019V0.56019C12.9571 0.635493 12.555 0.738316 12.1613 0.867979H11.7516L10.8299 1.17577L10.1898 1.43221L9.54966 1.71448L8.67913 2.12481L8.29501 2.35573L7.24531 2.99699C6.39461 3.5832 5.59768 4.24406 4.86407 4.97194V4.97194C2.93537 6.90754 1.51161 9.28877 0.718246 11.9057C-0.0751207 14.5225 -0.213671 17.2948 0.314744 19.978C0.843158 22.6612 2.02233 25.1731 3.74834 27.292C5.47436 29.411 7.6942 31.0719 10.2122 32.1286C12.7302 33.1854 15.469 33.6053 18.1872 33.3515C20.9055 33.0977 23.5196 32.1779 25.7993 30.6731C28.079 29.1684 29.9541 27.1251 31.2595 24.7231C32.5649 22.3211 33.2603 19.6341 33.2846 16.8993C33.259 14.7215 34.0027 12.6046 35.3842 10.9228V10.9228ZM42.1436 25.5948C40.3669 25.5944 38.6299 25.0678 37.1509 24.0813L31.7484 29.7501C34.9519 32.3046 38.9808 33.5907 43.069 33.3637C47.1571 33.1367 51.0195 31.4125 53.9216 28.5189L48.4423 23.0041C46.7679 24.6689 44.5027 25.6006 42.1436 25.5948Z" fill="white"/>
</svg>
