<svg width="60" height="37" viewBox="0 0 60 37" fill="none" xmlns="http://www.w3.org/2000/svg">
<path d="M18.4895 12.4893C17.3569 12.4611 16.2416 12.77 15.286 13.3767C14.3304 13.9833 13.578 14.8599 13.1248 15.8948C12.6716 16.9297 12.5382 18.0759 12.7417 19.1867C12.9452 20.2975 13.4764 21.3225 14.2673 22.131C15.0582 22.9395 16.073 23.4947 17.182 23.7256C18.2911 23.9565 19.444 23.8525 20.4935 23.4272C21.543 23.0018 22.4415 22.2743 23.0741 21.3376C23.7067 20.4009 24.0448 19.2975 24.0452 18.1683C24.0457 16.6864 23.4649 15.263 22.427 14.2019C21.389 13.1409 19.9759 12.5264 18.4895 12.4893ZM50.8262 14.1078C50.0406 13.2865 49.0261 12.7185 47.9136 12.4772C46.801 12.2359 45.6415 12.3323 44.5844 12.754C43.5274 13.1756 42.6213 13.9033 41.9831 14.843C41.3449 15.7828 41.0038 16.8916 41.0038 18.0264C41.0038 19.1611 41.3449 20.2698 41.9831 21.2095C42.6213 22.1493 43.5274 22.8769 44.5844 23.2986C45.6415 23.7203 46.801 23.8167 47.9136 23.5754C49.0261 23.3341 50.0406 22.7662 50.8262 21.9449L46.8945 18.0264L50.8262 14.1078Z" fill="black"/>
<path d="M39.373 12.0916C40.2587 11.0547 41.3505 10.2121 42.5795 9.61693C43.8084 9.02172 45.1478 8.68677 46.5131 8.63341C47.8785 8.58005 49.24 8.80942 50.512 9.30689C51.7839 9.80435 52.9386 10.5591 53.9031 11.5237L60 5.41888C57.429 2.85136 54.1559 1.09584 50.5896 0.371609C47.0233 -0.352626 43.3219 -0.0134115 39.9479 1.34682C36.5738 2.70705 33.6768 5.028 31.6186 8.01972C29.5605 11.0114 28.4325 14.5412 28.3756 18.1682C28.3884 20.6519 27.4884 23.0542 25.8455 24.9218C24.2026 26.7894 21.9305 27.993 19.4582 28.3052C17.2745 28.527 15.0788 28.0182 13.2172 26.8591C11.3557 25.6999 9.93417 23.9564 9.1767 21.9031C8.41924 19.8499 8.36888 17.6037 9.03368 15.5188C9.69847 13.4339 11.0406 11.6288 12.8484 10.388L13.4182 10.0188H13.7031L14.159 9.79163L14.5863 9.59284L14.9567 9.4509L15.5265 9.25212H15.726L16.4667 9.08176C18.2296 8.73974 20.0528 8.88715 21.7374 9.50775C22.4204 9.76568 23.164 9.8197 23.8774 9.66338C24.5908 9.50707 25.2431 9.14719 25.7546 8.62752L29.8856 4.31144C26.6073 1.70617 22.54 0.284915 18.347 0.279409C17.1799 0.27599 16.0153 0.390136 14.8712 0.620134C14.4177 0.703495 13.9703 0.817321 13.5322 0.960859H13.0763L12.0507 1.30158L11.3384 1.58546L10.6262 1.89794L9.65751 2.35218L9.23009 2.60781L8.06206 3.31768C7.11546 3.96662 6.22869 4.6982 5.41238 5.50397C3.26626 7.64669 1.68201 10.2827 0.799212 13.1796C-0.0835889 16.0766 -0.237758 19.1455 0.350224 22.1158C0.938206 25.0861 2.2503 27.8667 4.17088 30.2124C6.09147 32.5581 8.56155 34.3968 11.3634 35.5666C14.1652 36.7364 17.2128 37.2013 20.2374 36.9203C23.2621 36.6394 26.1709 35.6211 28.7076 33.9554C31.2442 32.2896 33.3308 30.0276 34.7833 27.3686C36.2358 24.7096 37.0097 21.7351 37.0367 18.7077C37.0082 16.2968 37.8357 13.9533 39.373 12.0916ZM46.8944 28.3336C44.9173 28.3332 42.9845 27.7502 41.3388 26.6582L35.3273 32.9335C38.8919 35.7615 43.375 37.1851 47.924 36.9339C52.4731 36.6826 56.7708 34.7738 60 31.5706L53.9031 25.4657C52.0399 27.3086 49.5194 28.34 46.8944 28.3336Z" fill="black"/>
</svg>
