<svg width="24" height="24" viewBox="0 0 24 24" fill="none" xmlns="http://www.w3.org/2000/svg">
<mask id="mask0_486_854" style="mask-type:alpha" maskUnits="userSpaceOnUse" x="0" y="0" width="24" height="24">
<rect x="24" y="24" width="24" height="24" transform="rotate(-180 24 24)" fill="#D9D9D9"/>
</mask>
<g mask="url(#mask0_486_854)">
<path d="M18.3 6L16 10C17.1 10 18.0417 10.3917 18.825 11.175C19.6083 11.9583 20 12.9 20 14C20 15.1 19.6083 16.0417 18.825 16.825C18.0417 17.6083 17.1 18 16 18C14.9 18 13.9583 17.6083 13.175 16.825C12.3917 16.0417 12 15.1 12 14C12 13.6167 12.0458 13.2625 12.1375 12.9375C12.2292 12.6125 12.3667 12.3 12.55 12L16 6H18.3ZM9.3 6L7 10C8.1 10 9.04167 10.3917 9.825 11.175C10.6083 11.9583 11 12.9 11 14C11 15.1 10.6083 16.0417 9.825 16.825C9.04167 17.6083 8.1 18 7 18C5.9 18 4.95833 17.6083 4.175 16.825C3.39167 16.0417 3 15.1 3 14C3 13.6167 3.04583 13.2625 3.1375 12.9375C3.22917 12.6125 3.36667 12.3 3.55 12L7 6H9.3Z" fill="white"/>
</g>
</svg>
